# xmcd CD database file
#
# Track frame offsets:
#	151
#	14693
#	34474
#	53594
#	70629
#	86752
#	103834
#	128299
#	143880
#	159910
#	176728
#	194925
#	217876
#
# Disc length: 3196 seconds
#
# Revision: 1
# Processed by: cddbd v1.4PL0 Copyright (c) Steve Scherf et al.
# Submitted via: CDValet v3.40 - Copyright (c) 1996 - 1998 Greg Leichner
#
DISCID=b70c7a0d
DTITLE=Blee, Patty - Disguise
DYEAR=1900
DGENRE=
TTITLE0=Till I Get Enough
TTITLE1=Right Between You And Me
TTITLE2=Down To The Water
TTITLE3=Cry
TTITLE4=I Miss The Way
TTITLE5=Couldn't You Feel It?
TTITLE6=Soul Dancing
TTITLE7=I Believe In This Love
TTITLE8=Coming Home
TTITLE9=Lucky Ones
TTITLE10=Real Thing
TTITLE11=No Such Thing As Goodbye
TTITLE12=Disguise
EXTD=
EXTT0=
EXTT1=
EXTT2=
EXTT3=
EXTT4=
EXTT5=
EXTT6=
EXTT7=
EXTT8=
EXTT9=
EXTT10=
EXTT11=
EXTT12=
PLAYORDER=
